# xmcd
#
# Track frame offsets:
#	316
#	19074
#	33197
#	48887
#	65465
#	80904
#	93413
#	107554
#	129676
#	149502
#	163470
#	178259
#	196463
#	224512
#	242144
#
# Disc length: 3460 seconds
#
# Revision: 0
# Processed by: cddbd v1.5.2PL0 Copyright (c) Steve Scherf et al.
# Submitted via: FairStars CD Ripper 1.01
#
DISCID=e40d800f
DTITLE=Carrie Ann and the Apocalyptics - Strong Wind
DYEAR=2008
DGENRE=country
TTITLE0=Is Two
TTITLE1=Be-Um
TTITLE2=Grass
TTITLE3=Sometimes Ur Up
TTITLE4=If You Only Knew
TTITLE5=Little Black Heart
TTITLE6=Odessa
TTITLE7=Strong Wind
TTITLE8=Simpler Life
TTITLE9=Hey Hey
TTITLE10=Release Me
TTITLE11=Madhouse Blues
TTITLE12=Mama
TTITLE13=Glory Glory
TTITLE14=Soldier's Song
EXTD=
EXTT0=
EXTT1=
EXTT2=
EXTT3=
EXTT4=
EXTT5=
EXTT6=
EXTT7=
EXTT8=
EXTT9=
EXTT10=
EXTT11=
EXTT12=
EXTT13=
EXTT14=
PLAYORDER=
